<?xml version="1.0" encoding="utf-8" standalone="no"?>
<!DOCTYPE svg PUBLIC "-//W3C//DTD SVG 1.1//EN"
  "http://www.w3.org/Graphics/SVG/1.1/DTD/svg11.dtd">
<!-- Created with matplotlib (https://matplotlib.org/) -->
<svg height="288pt" version="1.1" viewBox="0 0 432 288" width="432pt" xmlns="http://www.w3.org/2000/svg" xmlns:xlink="http://www.w3.org/1999/xlink">
 <defs>
  <style type="text/css">
*{stroke-linecap:butt;stroke-linejoin:round;}
  </style>
 </defs>
 <g id="figure_1">
  <g id="patch_1">
   <path d="M 0 288 
L 432 288 
L 432 0 
L 0 0 
z
" style="fill:#ffffff;"/>
  </g>
  <g id="axes_1">
   <g id="patch_2">
    <path d="M 54 252 
L 388.8 252 
L 388.8 34.56 
L 54 34.56 
z
" style="fill:#ffffff;"/>
   </g>
   <g id="matplotlib.axis_1">
    <g id="xtick_1">
     <g id="line2d_1">
      <defs>
       <path d="M 0 0 
L 0 3.5 
" id="m27fa4c9ccb" style="stroke:#000000;stroke-width:0.8;"/>
      </defs>
      <g>
       <use style="stroke:#000000;stroke-width:0.8;" x="54" xlink:href="#m27fa4c9ccb" y="252"/>
      </g>
     </g>
     <g id="text_1">
      <!-- 0 -->
      <defs>
       <path d="M 31.78125 66.40625 
Q 24.171875 66.40625 20.328125 58.90625 
Q 16.5 51.421875 16.5 36.375 
Q 16.5 21.390625 20.328125 13.890625 
Q 24.171875 6.390625 31.78125 6.390625 
Q 39.453125 6.390625 43.28125 13.890625 
Q 47.125 21.390625 47.125 36.375 
Q 47.125 51.421875 43.28125 58.90625 
Q 39.453125 66.40625 31.78125 66.40625 
z
M 31.78125 74.21875 
Q 44.046875 74.21875 50.515625 64.515625 
Q 56.984375 54.828125 56.984375 36.375 
Q 56.984375 17.96875 50.515625 8.265625 
Q 44.046875 -1.421875 31.78125 -1.421875 
Q 19.53125 -1.421875 13.0625 8.265625 
Q 6.59375 17.96875 6.59375 36.375 
Q 6.59375 54.828125 13.0625 64.515625 
Q 19.53125 74.21875 31.78125 74.21875 
z
" id="DejaVuSans-48"/>
      </defs>
      <g transform="translate(50.81875 266.598437)scale(0.1 -0.1)">
       <use xlink:href="#DejaVuSans-48"/>
      </g>
     </g>
    </g>
    <g id="xtick_2">
     <g id="line2d_2">
      <g>
       <use style="stroke:#000000;stroke-width:0.8;" x="106.932806" xlink:href="#m27fa4c9ccb" y="252"/>
      </g>
     </g>
     <g id="text_2">
      <!-- 2000 -->
      <defs>
       <path d="M 19.1875 8.296875 
L 53.609375 8.296875 
L 53.609375 0 
L 7.328125 0 
L 7.328125 8.296875 
Q 12.9375 14.109375 22.625 23.890625 
Q 32.328125 33.6875 34.8125 36.53125 
Q 39.546875 41.84375 41.421875 45.53125 
Q 43.3125 49.21875 43.3125 52.78125 
Q 43.3125 58.59375 39.234375 62.25 
Q 35.15625 65.921875 28.609375 65.921875 
Q 23.96875 65.921875 18.8125 64.3125 
Q 13.671875 62.703125 7.8125 59.421875 
L 7.8125 69.390625 
Q 13.765625 71.78125 18.9375 73 
Q 24.125 74.21875 28.421875 74.21875 
Q 39.75 74.21875 46.484375 68.546875 
Q 53.21875 62.890625 53.21875 53.421875 
Q 53.21875 48.921875 51.53125 44.890625 
Q 49.859375 40.875 45.40625 35.40625 
Q 44.1875 33.984375 37.640625 27.21875 
Q 31.109375 20.453125 19.1875 8.296875 
z
" id="DejaVuSans-50"/>
      </defs>
      <g transform="translate(94.207806 266.598437)scale(0.1 -0.1)">
       <use xlink:href="#DejaVuSans-50"/>
       <use x="63.623047" xlink:href="#DejaVuSans-48"/>
       <use x="127.246094" xlink:href="#DejaVuSans-48"/>
       <use x="190.869141" xlink:href="#DejaVuSans-48"/>
      </g>
     </g>
    </g>
    <g id="xtick_3">
     <g id="line2d_3">
      <g>
       <use style="stroke:#000000;stroke-width:0.8;" x="159.865613" xlink:href="#m27fa4c9ccb" y="252"/>
      </g>
     </g>
     <g id="text_3">
      <!-- 4000 -->
      <defs>
       <path d="M 37.796875 64.3125 
L 12.890625 25.390625 
L 37.796875 25.390625 
z
M 35.203125 72.90625 
L 47.609375 72.90625 
L 47.609375 25.390625 
L 58.015625 25.390625 
L 58.015625 17.1875 
L 47.609375 17.1875 
L 47.609375 0 
L 37.796875 0 
L 37.796875 17.1875 
L 4.890625 17.1875 
L 4.890625 26.703125 
z
" id="DejaVuSans-52"/>
      </defs>
      <g transform="translate(147.140613 266.598437)scale(0.1 -0.1)">
       <use xlink:href="#DejaVuSans-52"/>
       <use x="63.623047" xlink:href="#DejaVuSans-48"/>
       <use x="127.246094" xlink:href="#DejaVuSans-48"/>
       <use x="190.869141" xlink:href="#DejaVuSans-48"/>
      </g>
     </g>
    </g>
    <g id="xtick_4">
     <g id="line2d_4">
      <g>
       <use style="stroke:#000000;stroke-width:0.8;" x="212.798419" xlink:href="#m27fa4c9ccb" y="252"/>
      </g>
     </g>
     <g id="text_4">
      <!-- 6000 -->
      <defs>
       <path d="M 33.015625 40.375 
Q 26.375 40.375 22.484375 35.828125 
Q 18.609375 31.296875 18.609375 23.390625 
Q 18.609375 15.53125 22.484375 10.953125 
Q 26.375 6.390625 33.015625 6.390625 
Q 39.65625 6.390625 43.53125 10.953125 
Q 47.40625 15.53125 47.40625 23.390625 
Q 47.40625 31.296875 43.53125 35.828125 
Q 39.65625 40.375 33.015625 40.375 
z
M 52.59375 71.296875 
L 52.59375 62.3125 
Q 48.875 64.0625 45.09375 64.984375 
Q 41.3125 65.921875 37.59375 65.921875 
Q 27.828125 65.921875 22.671875 59.328125 
Q 17.53125 52.734375 16.796875 39.40625 
Q 19.671875 43.65625 24.015625 45.921875 
Q 28.375 48.1875 33.59375 48.1875 
Q 44.578125 48.1875 50.953125 41.515625 
Q 57.328125 34.859375 57.328125 23.390625 
Q 57.328125 12.15625 50.6875 5.359375 
Q 44.046875 -1.421875 33.015625 -1.421875 
Q 20.359375 -1.421875 13.671875 8.265625 
Q 6.984375 17.96875 6.984375 36.375 
Q 6.984375 53.65625 15.1875 63.9375 
Q 23.390625 74.21875 37.203125 74.21875 
Q 40.921875 74.21875 44.703125 73.484375 
Q 48.484375 72.75 52.59375 71.296875 
z
" id="DejaVuSans-54"/>
      </defs>
      <g transform="translate(200.073419 266.598437)scale(0.1 -0.1)">
       <use xlink:href="#DejaVuSans-54"/>
       <use x="63.623047" xlink:href="#DejaVuSans-48"/>
       <use x="127.246094" xlink:href="#DejaVuSans-48"/>
       <use x="190.869141" xlink:href="#DejaVuSans-48"/>
      </g>
     </g>
    </g>
    <g id="xtick_5">
     <g id="line2d_5">
      <g>
       <use style="stroke:#000000;stroke-width:0.8;" x="265.731225" xlink:href="#m27fa4c9ccb" y="252"/>
      </g>
     </g>
     <g id="text_5">
      <!-- 8000 -->
      <defs>
       <path d="M 31.78125 34.625 
Q 24.75 34.625 20.71875 30.859375 
Q 16.703125 27.09375 16.703125 20.515625 
Q 16.703125 13.921875 20.71875 10.15625 
Q 24.75 6.390625 31.78125 6.390625 
Q 38.8125 6.390625 42.859375 10.171875 
Q 46.921875 13.96875 46.921875 20.515625 
Q 46.921875 27.09375 42.890625 30.859375 
Q 38.875 34.625 31.78125 34.625 
z
M 21.921875 38.8125 
Q 15.578125 40.375 12.03125 44.71875 
Q 8.5 49.078125 8.5 55.328125 
Q 8.5 64.0625 14.71875 69.140625 
Q 20.953125 74.21875 31.78125 74.21875 
Q 42.671875 74.21875 48.875 69.140625 
Q 55.078125 64.0625 55.078125 55.328125 
Q 55.078125 49.078125 51.53125 44.71875 
Q 48 40.375 41.703125 38.8125 
Q 48.828125 37.15625 52.796875 32.3125 
Q 56.78125 27.484375 56.78125 20.515625 
Q 56.78125 9.90625 50.3125 4.234375 
Q 43.84375 -1.421875 31.78125 -1.421875 
Q 19.734375 -1.421875 13.25 4.234375 
Q 6.78125 9.90625 6.78125 20.515625 
Q 6.78125 27.484375 10.78125 32.3125 
Q 14.796875 37.15625 21.921875 38.8125 
z
M 18.3125 54.390625 
Q 18.3125 48.734375 21.84375 45.5625 
Q 25.390625 42.390625 31.78125 42.390625 
Q 38.140625 42.390625 41.71875 45.5625 
Q 45.3125 48.734375 45.3125 54.390625 
Q 45.3125 60.0625 41.71875 63.234375 
Q 38.140625 66.40625 31.78125 66.40625 
Q 25.390625 66.40625 21.84375 63.234375 
Q 18.3125 60.0625 18.3125 54.390625 
z
" id="DejaVuSans-56"/>
      </defs>
      <g transform="translate(253.006225 266.598437)scale(0.1 -0.1)">
       <use xlink:href="#DejaVuSans-56"/>
       <use x="63.623047" xlink:href="#DejaVuSans-48"/>
       <use x="127.246094" xlink:href="#DejaVuSans-48"/>
       <use x="190.869141" xlink:href="#DejaVuSans-48"/>
      </g>
     </g>
    </g>
    <g id="xtick_6">
     <g id="line2d_6">
      <g>
       <use style="stroke:#000000;stroke-width:0.8;" x="318.664032" xlink:href="#m27fa4c9ccb" y="252"/>
      </g>
     </g>
     <g id="text_6">
      <!-- 10000 -->
      <defs>
       <path d="M 12.40625 8.296875 
L 28.515625 8.296875 
L 28.515625 63.921875 
L 10.984375 60.40625 
L 10.984375 69.390625 
L 28.421875 72.90625 
L 38.28125 72.90625 
L 38.28125 8.296875 
L 54.390625 8.296875 
L 54.390625 0 
L 12.40625 0 
z
" id="DejaVuSans-49"/>
      </defs>
      <g transform="translate(302.757782 266.598437)scale(0.1 -0.1)">
       <use xlink:href="#DejaVuSans-49"/>
       <use x="63.623047" xlink:href="#DejaVuSans-48"/>
       <use x="127.246094" xlink:href="#DejaVuSans-48"/>
       <use x="190.869141" xlink:href="#DejaVuSans-48"/>
       <use x="254.492188" xlink:href="#DejaVuSans-48"/>
      </g>
     </g>
    </g>
    <g id="xtick_7">
     <g id="line2d_7">
      <g>
       <use style="stroke:#000000;stroke-width:0.8;" x="371.596838" xlink:href="#m27fa4c9ccb" y="252"/>
      </g>
     </g>
     <g id="text_7">
      <!-- 12000 -->
      <g transform="translate(355.690588 266.598437)scale(0.1 -0.1)">
       <use xlink:href="#DejaVuSans-49"/>
       <use x="63.623047" xlink:href="#DejaVuSans-50"/>
       <use x="127.246094" xlink:href="#DejaVuSans-48"/>
       <use x="190.869141" xlink:href="#DejaVuSans-48"/>
       <use x="254.492188" xlink:href="#DejaVuSans-48"/>
      </g>
     </g>
    </g>
   </g>
   <g id="matplotlib.axis_2">
    <g id="ytick_1">
     <g id="line2d_8">
      <defs>
       <path d="M 0 0 
L -3.5 0 
" id="me326f96071" style="stroke:#000000;stroke-width:0.8;"/>
      </defs>
      <g>
       <use style="stroke:#000000;stroke-width:0.8;" x="54" xlink:href="#me326f96071" y="228.229892"/>
      </g>
     </g>
     <g id="text_8">
      <!-- 19.1 -->
      <defs>
       <path d="M 10.984375 1.515625 
L 10.984375 10.5 
Q 14.703125 8.734375 18.5 7.8125 
Q 22.3125 6.890625 25.984375 6.890625 
Q 35.75 6.890625 40.890625 13.453125 
Q 46.046875 20.015625 46.78125 33.40625 
Q 43.953125 29.203125 39.59375 26.953125 
Q 35.25 24.703125 29.984375 24.703125 
Q 19.046875 24.703125 12.671875 31.3125 
Q 6.296875 37.9375 6.296875 49.421875 
Q 6.296875 60.640625 12.9375 67.421875 
Q 19.578125 74.21875 30.609375 74.21875 
Q 43.265625 74.21875 49.921875 64.515625 
Q 56.59375 54.828125 56.59375 36.375 
Q 56.59375 19.140625 48.40625 8.859375 
Q 40.234375 -1.421875 26.421875 -1.421875 
Q 22.703125 -1.421875 18.890625 -0.6875 
Q 15.09375 0.046875 10.984375 1.515625 
z
M 30.609375 32.421875 
Q 37.25 32.421875 41.125 36.953125 
Q 45.015625 41.5 45.015625 49.421875 
Q 45.015625 57.28125 41.125 61.84375 
Q 37.25 66.40625 30.609375 66.40625 
Q 23.96875 66.40625 20.09375 61.84375 
Q 16.21875 57.28125 16.21875 49.421875 
Q 16.21875 41.5 20.09375 36.953125 
Q 23.96875 32.421875 30.609375 32.421875 
z
" id="DejaVuSans-57"/>
       <path d="M 10.6875 12.40625 
L 21 12.40625 
L 21 0 
L 10.6875 0 
z
" id="DejaVuSans-46"/>
      </defs>
      <g transform="translate(24.734375 232.029111)scale(0.1 -0.1)">
       <use xlink:href="#DejaVuSans-49"/>
       <use x="63.623047" xlink:href="#DejaVuSans-57"/>
       <use x="127.246094" xlink:href="#DejaVuSans-46"/>
       <use x="159.033203" xlink:href="#DejaVuSans-49"/>
      </g>
     </g>
    </g>
    <g id="ytick_2">
     <g id="line2d_9">
      <g>
       <use style="stroke:#000000;stroke-width:0.8;" x="54" xlink:href="#me326f96071" y="198.302151"/>
      </g>
     </g>
     <g id="text_9">
      <!-- 19.2 -->
      <g transform="translate(24.734375 202.10137)scale(0.1 -0.1)">
       <use xlink:href="#DejaVuSans-49"/>
       <use x="63.623047" xlink:href="#DejaVuSans-57"/>
       <use x="127.246094" xlink:href="#DejaVuSans-46"/>
       <use x="159.033203" xlink:href="#DejaVuSans-50"/>
      </g>
     </g>
    </g>
    <g id="ytick_3">
     <g id="line2d_10">
      <g>
       <use style="stroke:#000000;stroke-width:0.8;" x="54" xlink:href="#me326f96071" y="168.374411"/>
      </g>
     </g>
     <g id="text_10">
      <!-- 19.3 -->
      <defs>
       <path d="M 40.578125 39.3125 
Q 47.65625 37.796875 51.625 33 
Q 55.609375 28.21875 55.609375 21.1875 
Q 55.609375 10.40625 48.1875 4.484375 
Q 40.765625 -1.421875 27.09375 -1.421875 
Q 22.515625 -1.421875 17.65625 -0.515625 
Q 12.796875 0.390625 7.625 2.203125 
L 7.625 11.71875 
Q 11.71875 9.328125 16.59375 8.109375 
Q 21.484375 6.890625 26.8125 6.890625 
Q 36.078125 6.890625 40.9375 10.546875 
Q 45.796875 14.203125 45.796875 21.1875 
Q 45.796875 27.640625 41.28125 31.265625 
Q 36.765625 34.90625 28.71875 34.90625 
L 20.21875 34.90625 
L 20.21875 43.015625 
L 29.109375 43.015625 
Q 36.375 43.015625 40.234375 45.921875 
Q 44.09375 48.828125 44.09375 54.296875 
Q 44.09375 59.90625 40.109375 62.90625 
Q 36.140625 65.921875 28.71875 65.921875 
Q 24.65625 65.921875 20.015625 65.03125 
Q 15.375 64.15625 9.8125 62.3125 
L 9.8125 71.09375 
Q 15.4375 72.65625 20.34375 73.4375 
Q 25.25 74.21875 29.59375 74.21875 
Q 40.828125 74.21875 47.359375 69.109375 
Q 53.90625 64.015625 53.90625 55.328125 
Q 53.90625 49.265625 50.4375 45.09375 
Q 46.96875 40.921875 40.578125 39.3125 
z
" id="DejaVuSans-51"/>
      </defs>
      <g transform="translate(24.734375 172.173629)scale(0.1 -0.1)">
       <use xlink:href="#DejaVuSans-49"/>
       <use x="63.623047" xlink:href="#DejaVuSans-57"/>
       <use x="127.246094" xlink:href="#DejaVuSans-46"/>
       <use x="159.033203" xlink:href="#DejaVuSans-51"/>
      </g>
     </g>
    </g>
    <g id="ytick_4">
     <g id="line2d_11">
      <g>
       <use style="stroke:#000000;stroke-width:0.8;" x="54" xlink:href="#me326f96071" y="138.44667"/>
      </g>
     </g>
     <g id="text_11">
      <!-- 19.4 -->
      <g transform="translate(24.734375 142.245889)scale(0.1 -0.1)">
       <use xlink:href="#DejaVuSans-49"/>
       <use x="63.623047" xlink:href="#DejaVuSans-57"/>
       <use x="127.246094" xlink:href="#DejaVuSans-46"/>
       <use x="159.033203" xlink:href="#DejaVuSans-52"/>
      </g>
     </g>
    </g>
    <g id="ytick_5">
     <g id="line2d_12">
      <g>
       <use style="stroke:#000000;stroke-width:0.8;" x="54" xlink:href="#me326f96071" y="108.518929"/>
      </g>
     </g>
     <g id="text_12">
      <!-- 19.5 -->
      <defs>
       <path d="M 10.796875 72.90625 
L 49.515625 72.90625 
L 49.515625 64.59375 
L 19.828125 64.59375 
L 19.828125 46.734375 
Q 21.96875 47.46875 24.109375 47.828125 
Q 26.265625 48.1875 28.421875 48.1875 
Q 40.625 48.1875 47.75 41.5 
Q 54.890625 34.8125 54.890625 23.390625 
Q 54.890625 11.625 47.5625 5.09375 
Q 40.234375 -1.421875 26.90625 -1.421875 
Q 22.3125 -1.421875 17.546875 -0.640625 
Q 12.796875 0.140625 7.71875 1.703125 
L 7.71875 11.625 
Q 12.109375 9.234375 16.796875 8.0625 
Q 21.484375 6.890625 26.703125 6.890625 
Q 35.15625 6.890625 40.078125 11.328125 
Q 45.015625 15.765625 45.015625 23.390625 
Q 45.015625 31 40.078125 35.4375 
Q 35.15625 39.890625 26.703125 39.890625 
Q 22.75 39.890625 18.8125 39.015625 
Q 14.890625 38.140625 10.796875 36.28125 
z
" id="DejaVuSans-53"/>
      </defs>
      <g transform="translate(24.734375 112.318148)scale(0.1 -0.1)">
       <use xlink:href="#DejaVuSans-49"/>
       <use x="63.623047" xlink:href="#DejaVuSans-57"/>
       <use x="127.246094" xlink:href="#DejaVuSans-46"/>
       <use x="159.033203" xlink:href="#DejaVuSans-53"/>
      </g>
     </g>
    </g>
    <g id="ytick_6">
     <g id="line2d_13">
      <g>
       <use style="stroke:#000000;stroke-width:0.8;" x="54" xlink:href="#me326f96071" y="78.591188"/>
      </g>
     </g>
     <g id="text_13">
      <!-- 19.6 -->
      <g transform="translate(24.734375 82.390407)scale(0.1 -0.1)">
       <use xlink:href="#DejaVuSans-49"/>
       <use x="63.623047" xlink:href="#DejaVuSans-57"/>
       <use x="127.246094" xlink:href="#DejaVuSans-46"/>
       <use x="159.033203" xlink:href="#DejaVuSans-54"/>
      </g>
     </g>
    </g>
    <g id="ytick_7">
     <g id="line2d_14">
      <g>
       <use style="stroke:#000000;stroke-width:0.8;" x="54" xlink:href="#me326f96071" y="48.663448"/>
      </g>
     </g>
     <g id="text_14">
      <!-- 19.7 -->
      <defs>
       <path d="M 8.203125 72.90625 
L 55.078125 72.90625 
L 55.078125 68.703125 
L 28.609375 0 
L 18.3125 0 
L 43.21875 64.59375 
L 8.203125 64.59375 
z
" id="DejaVuSans-55"/>
      </defs>
      <g transform="translate(24.734375 52.462667)scale(0.1 -0.1)">
       <use xlink:href="#DejaVuSans-49"/>
       <use x="63.623047" xlink:href="#DejaVuSans-57"/>
       <use x="127.246094" xlink:href="#DejaVuSans-46"/>
       <use x="159.033203" xlink:href="#DejaVuSans-55"/>
      </g>
     </g>
    </g>
   </g>
   <g id="line2d_15">
    <path clip-path="url(#p060ec025e4)" d="M 318.637565 238.914095 
L 318.690498 238.764457 
L 318.875763 241.996653 
L 318.902229 241.457953 
L 318.928696 242.116364 
L 318.981628 241.876942 
L 319.008095 241.847014 
L 319.034561 240.799543 
L 319.11396 241.338242 
L 319.140427 241.428026 
L 319.166893 240.949182 
L 319.219826 241.757231 
L 319.246292 241.697375 
L 319.431557 239.063734 
L 319.458024 239.542578 
L 319.48449 239.991494 
L 319.563889 239.572506 
L 319.934419 237.028648 
L 319.960885 237.26807 
L 320.013818 236.519876 
L 320.622545 223.112248 
L 320.649012 221.286656 
L 320.728411 221.945066 
L 320.993075 224.309358 
L 321.363605 226.164878 
L 321.390071 226.015239 
L 321.416538 225.925456 
L 321.734134 230.384689 
L 321.760601 230.384689 
L 321.945866 231.132883 
L 321.84 230.354762 
L 321.972332 231.102955 
L 322.051731 230.953316 
L 322.13113 231.791293 
L 322.184063 231.671582 
L 322.21053 232.030715 
L 322.263462 231.521943 
L 322.422261 230.683967 
L 322.448727 230.713894 
L 322.475194 231.013172 
L 322.528126 230.444545 
L 322.554593 230.444545 
L 322.739858 228.110181 
L 322.792791 228.170036 
L 322.819257 228.409458 
L 322.845723 228.020398 
L 322.87219 228.050326 
L 322.925123 227.212349 
L 323.004522 227.33206 
L 323.110387 227.780976 
L 323.242719 226.703577 
L 323.269186 226.733505 
L 323.348585 227.780976 
L 323.401518 227.541554 
L 323.427984 227.571482 
L 323.507383 226.673649 
L 323.560316 227.152493 
L 323.613249 227.33206 
L 323.772047 225.416684 
L 323.798514 225.386757 
L 323.957312 223.740731 
L 324.169043 222.483766 
L 324.274909 222.812971 
L 324.301375 222.812971 
L 324.380775 223.441453 
L 324.407241 223.112248 
L 324.48664 222.483766 
L 324.513107 221.556006 
L 324.592506 222.004922 
L 324.645439 222.244344 
L 324.724838 220.538463 
L 324.751304 221.256728 
L 324.804237 222.69326 
L 324.85717 221.885211 
L 324.910103 221.615861 
L 324.936569 222.483766 
L 324.989502 221.376439 
L 325.015968 222.124633 
L 325.042435 222.124633 
L 325.068901 222.783043 
L 325.095368 222.03485 
L 325.121834 221.286656 
L 325.201233 221.974994 
L 325.307099 224.608635 
L 325.51883 210.572525 
L 325.598229 210.752091 
L 325.624696 210.692236 
L 325.651162 210.452814 
L 325.836427 200.337238 
L 325.862893 200.397093 
L 325.995225 199.050345 
L 326.259889 207.549823 
L 326.339289 204.257772 
L 326.365755 204.826399 
L 326.656885 206.831557 
L 326.683352 206.711846 
L 326.709818 206.681919 
L 326.789217 206.26293 
L 326.84215 206.412569 
L 326.868617 206.292858 
L 326.895083 206.592135 
L 326.921549 206.741774 
L 326.948016 206.322786 
L 327.000949 206.143219 
L 327.027415 206.442497 
L 327.106814 206.352714 
L 327.159747 205.814014 
L 327.186213 206.292858 
L 327.318545 206.981196 
L 327.345012 206.771702 
L 327.636142 204.67676 
L 327.927273 208.746933 
L 328.006672 208.357872 
L 328.112538 207.430112 
L 328.139004 207.489968 
L 328.16547 207.19069 
L 328.191937 207.579751 
L 328.350735 210.273248 
L 328.483067 210.063753 
L 328.509534 210.213392 
L 328.536 210.003898 
L 328.668332 209.195849 
L 328.721265 208.956427 
L 328.853597 210.662308 
L 328.90653 210.063753 
L 328.959462 210.392959 
L 328.985929 210.542597 
L 329.012395 210.512669 
L 329.277059 206.681919 
L 329.303526 206.651991 
L 329.488791 204.078205 
L 329.541723 204.227844 
L 329.56819 204.257772 
L 330.018119 200.696371 
L 330.044585 200.726298 
L 330.203383 198.152513 
L 330.22985 198.391934 
L 330.256316 198.45179 
L 330.362182 196.027643 
L 330.441581 196.895547 
L 330.468047 196.895547 
L 330.494514 196.296993 
L 330.573913 197.015258 
L 330.600379 196.476559 
L 330.679779 196.506487 
L 330.732711 196.985331 
L 330.785644 196.656126 
L 330.917976 195.728366 
L 330.997375 195.93786 
L 331.050308 195.099883 
L 331.103241 195.997715 
L 331.129708 195.788221 
L 331.156174 195.878004 
L 331.209107 197.464175 
L 331.288506 197.344464 
L 331.314972 197.224753 
L 331.341439 197.25468 
L 331.579636 190.131878 
L 331.764901 188.755202 
L 331.791368 188.904841 
L 331.950166 185.971922 
L 332.003099 186.331055 
L 332.029565 186.750043 
L 332.056032 185.7325 
L 332.082498 186.151489 
L 332.188364 184.535391 
L 332.294229 184.984307 
L 332.373628 185.792356 
L 332.50596 183.847053 
L 332.558893 184.475535 
L 332.638292 181.931677 
L 332.691225 182.620015 
L 332.717692 182.620015 
L 332.744158 182.859437 
L 332.770625 182.620015 
L 333.061755 179.268108 
L 333.088221 179.896591 
L 333.114688 180.584929 
L 333.141154 179.657169 
L 333.352885 174.838803 
L 333.405818 175.317646 
L 333.511684 175.557068 
L 333.53815 175.287719 
L 333.564617 176.035912 
L 334.067478 181.273267 
L 334.093945 181.123628 
L 334.146877 181.452833 
L 334.173344 181.512689 
L 334.226277 181.333122 
L 334.438008 184.086474 
L 334.649739 181.333122 
L 334.676206 181.392978 
L 334.702672 181.392978 
L 334.835004 180.375435 
L 334.86147 180.375435 
L 334.887937 180.614857 
L 334.914403 180.195868 
L 334.967336 180.495146 
L 335.152601 178.84912 
L 335.205534 178.998759 
L 335.364332 176.784106 
L 335.417265 176.933744 
L 335.443731 176.843961 
L 335.60253 175.287719 
L 335.655462 175.287719 
L 335.681929 175.646852 
L 335.734862 175.317646 
L 335.89366 174.449742 
L 335.920126 174.509597 
L 336.105391 172.803716 
L 336.184791 173.671621 
L 336.211257 173.102994 
L 336.237723 172.564294 
L 336.26419 173.492054 
L 336.370055 176.604539 
L 336.449455 176.305262 
L 336.661186 178.699481 
L 336.687652 178.041071 
L 336.714119 179.088542 
L 336.767051 178.699481 
L 336.846451 181.183484 
L 336.899383 180.43529 
L 337.031715 179.357891 
L 337.322846 184.774812 
L 337.455178 186.301127 
L 337.508111 185.283584 
L 337.534577 185.014234 
L 337.561043 185.373367 
L 337.613976 185.253656 
L 337.87864 188.216503 
L 337.984506 188.306286 
L 338.116838 187.169032 
L 338.460901 193.094724 
L 338.487368 192.675736 
L 338.566767 190.999783 
L 338.6197 191.209277 
L 338.752032 191.987398 
L 338.778498 191.987398 
L 339.016696 189.293901 
L 339.043162 189.533323 
L 339.069628 189.114335 
L 339.413692 185.223729 
L 339.519557 184.595246 
L 339.731289 186.360983 
L 339.757755 186.091633 
L 339.863621 185.014234 
L 339.916553 185.34344 
L 339.94302 185.672645 
L 339.995953 185.463151 
L 340.075352 184.744885 
L 340.101818 184.924451 
L 340.128285 185.762428 
L 340.207684 184.954379 
L 340.260617 184.894523 
L 340.498814 188.455925 
L 340.631146 188.934768 
L 340.842877 184.475535 
L 340.869344 184.80474 
L 341.028142 187.85737 
L 341.054609 188.605563 
L 341.107542 187.558092 
L 341.213407 187.049321 
L 341.239874 187.198959 
L 341.292806 186.92961 
L 341.345739 188.186575 
L 341.451605 187.019393 
L 341.478071 187.288743 
L 341.822134 178.729409 
L 341.928 178.998759 
L 341.954466 178.968831 
L 342.007399 179.148397 
L 342.060332 179.028686 
L 342.086798 178.998759 
L 342.166198 179.896591 
L 342.21913 179.717024 
L 342.377929 178.070999 
L 342.404395 178.250565 
L 342.510261 176.365117 
L 342.563194 176.843961 
L 342.616126 177.741793 
L 342.695526 177.382661 
L 342.801391 176.814033 
L 342.933723 178.160782 
L 342.96019 178.130854 
L 343.013123 177.412588 
L 343.092522 177.592155 
L 343.145455 177.352733 
L 343.224854 177.412588 
L 343.463051 178.789264 
L 343.515984 179.657169 
L 343.568917 179.298036 
L 343.648316 178.938903 
L 343.674783 179.208253 
L 343.701249 179.208253 
L 343.886514 178.489987 
L 343.992379 179.357891 
L 344.018846 178.819192 
L 344.045312 178.819192 
L 344.177644 177.951288 
L 344.362909 172.324872 
L 344.389375 172.863572 
L 344.415842 172.324872 
L 344.65404 165.650986 
L 344.680506 166.010119 
L 344.733439 165.441492 
L 344.865771 163.945105 
L 344.918704 160.892475 
L 344.998103 162.209296 
L 345.051036 161.820235 
L 345.103968 162.179368 
L 345.209834 161.550886 
L 345.2363 161.880091 
L 345.262767 162.239224 
L 345.3157 162.02973 
L 345.395099 161.251608 
L 345.421565 161.401247 
L 345.553897 162.478646 
L 345.60683 162.358935 
L 345.633296 162.388862 
L 345.792095 163.825394 
L 345.950893 159.755221 
L 346.189091 155.385771 
L 346.26849 156.343459 
L 346.347889 156.822303 
L 346.374356 156.283603 
L 346.400822 156.253676 
L 346.453755 157.001869 
L 346.63902 150.597333 
L 346.718419 149.490006 
L 346.744885 150.208272 
L 346.771352 150.148416 
L 346.903684 146.347593 
L 346.956617 147.784125 
L 347.009549 147.754197 
L 347.088949 148.532318 
L 347.115415 147.933764 
L 347.141881 148.652029 
L 347.194814 148.262969 
L 347.221281 148.262969 
L 347.30068 148.861524 
L 347.327146 147.544703 
L 347.406545 148.891451 
L 347.59181 144.701568 
L 347.644743 144.791351 
L 347.671209 144.761423 
L 347.697676 144.94099 
L 347.724142 144.641712 
L 347.803542 143.444603 
L 347.856474 143.833663 
L 347.935874 144.372363 
L 347.988806 144.162868 
L 348.25347 138.626236 
L 348.279937 138.985369 
L 348.412269 140.421901 
L 348.624 137.099922 
L 348.91513 132.760399 
L 348.941597 132.999821 
L 348.968063 132.999821 
L 349.047462 130.994662 
L 349.100395 131.443579 
L 349.179794 132.072061 
L 349.312126 128.420877 
L 349.365059 128.600443 
L 349.391526 128.540588 
L 349.550324 129.228926 
L 349.603257 129.468348 
L 349.735589 126.505501 
L 349.788522 126.625212 
L 349.841455 127.373406 
L 349.894387 126.774851 
L 350.026719 124.380632 
L 350.159051 125.428103 
L 350.344316 122.375473 
L 350.370783 122.465256 
L 350.423715 122.28569 
L 350.450182 122.345545 
L 350.556047 122.824389 
L 350.60898 122.794461 
L 350.661913 122.584967 
L 350.714846 122.674751 
L 350.820711 122.28569 
L 350.847178 122.435329 
L 350.873644 122.405401 
L 351.058909 121.717063 
L 351.085375 121.687135 
L 351.297107 117.826457 
L 351.535304 120.370315 
L 351.561771 119.203133 
L 351.64117 120.16082 
L 351.667636 120.041109 
L 351.694103 120.280531 
L 351.958767 123.21345 
L 351.985233 123.093739 
L 352.170498 120.849158 
L 352.249897 121.208291 
L 352.408696 117.227902 
L 352.461628 117.467324 
L 352.488095 116.180431 
L 352.567494 116.44978 
L 352.646893 117.078263 
L 352.885091 110.164955 
L 352.911557 110.703654 
L 352.938024 109.386834 
L 353.096822 106.813048 
L 353.123289 106.842976 
L 353.202688 107.411603 
L 353.387953 101.605621 
L 353.414419 102.174248 
L 353.493818 101.874971 
L 353.520285 101.515838 
L 353.546751 102.114393 
L 353.573217 102.084465 
L 353.62615 101.75526 
L 353.784949 98.134003 
L 353.917281 98.97198 
L 353.943747 98.822341 
L 353.970213 98.852269 
L 353.99668 98.70263 
L 354.023146 99.151546 
L 354.208411 100.528222 
L 354.261344 100.647933 
L 354.420142 101.575693 
L 354.552474 100.767644 
L 354.578941 100.797572 
L 354.605407 101.21656 
L 354.684806 101.156705 
L 354.817138 99.780029 
L 354.975937 98.074148 
L 355.002403 98.523064 
L 355.02887 98.672702 
L 355.055336 98.283642 
L 355.081802 98.552992 
L 355.478798 94.60253 
L 355.505265 94.782096 
L 355.531731 95.111301 
L 355.558198 95.051446 
L 355.716996 93.375492 
L 355.743462 93.584987 
L 355.822862 92.357949 
L 355.849328 92.806865 
L 355.98166 93.255781 
L 355.902261 92.597371 
L 356.008126 93.076215 
L 356.35219 94.572602 
L 356.405123 94.363108 
L 356.431589 94.393036 
L 356.616854 92.357949 
L 356.64332 92.567443 
L 356.669787 92.597371 
L 356.934451 89.604597 
L 356.960917 89.903874 
L 356.987383 89.784164 
L 357.01385 90.173224 
L 357.040316 90.322863 
L 357.066783 90.143296 
L 357.093249 89.784164 
L 357.119715 89.873947 
L 357.146182 90.592213 
L 357.252047 90.532357 
L 357.30498 90.532357 
L 357.437312 92.268166 
L 357.463779 91.759394 
L 357.516711 92.298094 
L 357.543178 91.909033 
L 357.67551 89.454958 
L 357.701976 90.263007 
L 357.834308 90.652068 
L 357.887241 89.425031 
L 357.940174 90.083441 
L 358.098972 91.938961 
L 358.151905 91.519972 
L 358.257771 92.238238 
L 358.284237 92.178383 
L 358.416569 90.921418 
L 358.443036 90.921418 
L 358.734166 87.779005 
L 358.787099 87.868788 
L 358.813565 87.808933 
L 359.157628 82.571578 
L 359.184095 82.721217 
L 359.263494 82.421939 
L 359.607557 86.103051 
L 359.66049 86.222762 
L 359.739889 84.457026 
L 359.766356 83.888399 
L 359.819289 84.038037 
L 359.978087 85.863629 
L 360.004553 85.773846 
L 360.03102 86.731534 
L 360.110419 85.773846 
L 360.163352 85.624208 
L 360.216285 86.372401 
L 360.32215 85.145364 
L 360.348617 85.474569 
L 360.507415 84.067965 
L 360.533881 84.097893 
L 360.586814 85.145364 
L 360.639747 84.277459 
L 360.666213 83.559193 
L 360.69268 84.307387 
L 360.745613 83.948254 
L 360.772079 84.157748 
L 360.798545 83.768688 
L 360.904411 80.02772 
L 360.98381 80.68613 
L 361.063209 80.386853 
L 361.116142 82.15259 
L 361.195542 81.135046 
L 361.222008 81.643818 
L 361.274941 81.075191 
L 361.433739 79.219671 
L 361.513138 79.698515 
L 361.539605 79.518948 
L 361.64547 78.381694 
L 361.963067 73.593256 
L 361.989534 73.653111 
L 362.121866 72.366218 
L 362.227731 69.70265 
L 362.280664 70.001927 
L 362.518862 67.517924 
L 362.545328 67.57778 
L 362.571794 68.385829 
L 362.624727 67.158792 
L 362.651194 67.458069 
L 362.730593 67.009153 
L 362.757059 67.30843 
L 362.783526 67.787274 
L 362.809992 67.428141 
L 362.995257 64.585006 
L 363.101123 64.974066 
L 363.154055 64.555078 
L 363.180522 65.06385 
L 363.206988 65.093777 
L 363.233455 64.255801 
L 363.312854 65.123705 
L 363.33932 65.123705 
L 363.392253 64.974066 
L 363.603984 66.560237 
L 363.789249 68.23619 
L 363.815715 67.817202 
L 363.842182 67.84713 
L 363.868648 67.218647 
L 363.895115 68.026696 
L 363.948047 67.936913 
L 363.974514 67.84713 
L 364.133312 69.762505 
L 364.159779 69.942071 
L 364.186245 69.912144 
L 364.318577 68.146407 
L 364.345043 68.206262 
L 364.503842 66.350743 
L 364.583241 66.470454 
L 364.66264 66.021537 
L 364.715573 66.141248 
L 364.794972 66.560237 
L 364.821439 66.500381 
L 365.006704 68.595323 
L 365.165502 66.38067 
L 365.959494 55.097912 
L 365.98596 55.606684 
L 366.012427 56.0556 
L 366.06536 55.427117 
L 366.277091 53.092753 
L 366.35649 53.392031 
L 366.382957 53.332175 
L 366.515289 54.918346 
L 366.541755 54.708851 
L 366.674087 53.900802 
L 366.779953 54.58914 
L 366.806419 54.439502 
L 366.991684 52.554054 
L 367.071083 51.955499 
L 367.229881 56.624227 
L 367.309281 56.354877 
L 367.362213 55.876033 
L 367.415146 55.995744 
L 367.521012 57.581915 
L 367.547478 57.132998 
L 367.626877 56.235166 
L 367.67981 56.594299 
L 367.706277 56.953432 
L 367.759209 56.654155 
L 367.944474 54.828562 
L 367.970941 54.918346 
L 367.997407 54.828562 
L 368.394403 50.459112 
L 368.500269 45.161902 
L 368.606134 45.371396 
L 368.659067 45.431252 
L 368.817866 44.443636 
L 368.870798 44.742914 
L 368.897265 44.712986 
L 369.320727 61.74187 
L 369.558925 63.896668 
L 369.585391 63.717101 
L 369.902988 60.125772 
L 370.167652 53.212464 
L 370.273518 51.207306 
L 370.511715 45.311541 
L 370.538182 45.431252 
L 370.564648 45.491107 
L 371.06751 53.751164 
L 371.093976 53.421959 
L 371.146909 53.900802 
L 371.173375 53.900802 
L 371.252775 54.259935 
L 371.279241 54.020513 
L 371.305708 54.080369 
L 371.385107 52.763548 
L 371.43804 53.362103 
L 371.570372 52.314632 
L 371.649771 51.057667 
L 371.676237 51.68615 
L 371.861502 54.708851 
L 371.887968 54.20008 
L 371.914435 54.259935 
L 372.179099 57.043215 
L 372.205565 57.132998 
L 372.284964 56.44466 
L 372.311431 56.534444 
L 372.443763 58.928663 
L 372.470229 58.749096 
L 372.496696 58.509674 
L 372.523162 58.958591 
L 372.549628 58.958591 
L 372.602561 58.56953 
L 372.629028 58.629385 
L 372.893692 53.900802 
L 372.999557 54.469429 
L 373.026024 54.499357 
L 373.05249 54.439502 
L 373.264221 56.354877 
L 373.290688 55.756322 
L 373.370087 56.384805 
L 373.396553 56.863649 
L 373.449486 56.175311 
L 373.475953 56.564371 
L 373.528885 56.384805 
L 373.555352 57.282637 
L 373.634751 56.354877 
L 373.661217 56.384805 
L 373.899415 53.032898 
L 373.952348 53.511742 
L 374.217012 46.987494 
L 374.296411 46.837856 
L 374.402277 47.795543 
L 374.428743 47.496266 
L 374.455209 47.765616 
L 374.481676 48.184604 
L 374.561075 48.034965 
L 374.587542 47.645905 
L 374.666941 47.945182 
L 374.772806 48.63352 
L 374.852206 48.603592 
L 375.011004 47.496266 
L 375.143336 46.179445 
L 375.328601 52.194921 
L 375.381534 51.356944 
L 375.460933 50.848173 
L 375.540332 52.284704 
L 375.566798 51.716077 
L 375.725597 49.920413 
L 375.752063 50.937956 
L 375.831462 50.518968 
L 375.857929 49.621136 
L 375.884395 49.680991 
L 376.016727 55.427117 
L 376.043194 54.58914 
L 376.06966 54.978201 
L 376.254925 62.01122 
L 376.387257 64.195945 
L 376.466656 65.841971 
L 376.493123 65.093777 
L 376.704854 62.130931 
L 376.863652 63.298113 
L 376.890119 63.088619 
L 377.048917 60.365194 
L 377.10185 60.514833 
L 377.154783 60.724327 
L 377.181249 60.42505 
L 377.313581 58.83888 
L 377.340047 58.928663 
L 377.578245 57.581915 
L 377.604711 57.731553 
L 377.631178 57.64177 
L 377.895842 55.038057 
L 378.028174 52.793476 
L 378.05464 53.691308 
L 378.266372 59.22794 
L 378.531036 65.273344 
L 378.610435 66.290887 
L 378.663368 65.662405 
L 378.822166 64.555078 
L 378.954498 64.076234 
L 379.113296 62.849197 
L 379.139763 62.579847 
L 379.192696 63.148474 
L 379.219162 63.178402 
L 379.430893 58.389964 
L 379.45736 58.330108 
L 379.589692 56.474588 
L 379.642625 57.043215 
L 379.695557 56.71401 
L 379.827889 51.985427 
L 379.854356 52.284704 
L 380.092553 50.249618 
L 380.11902 50.309474 
L 380.277818 54.678924 
L 380.383684 54.080369 
L 380.41015 53.54167 
L 380.489549 53.631453 
L 380.516016 53.990586 
L 380.542482 53.511742 
L 380.568949 52.973042 
L 380.648348 53.362103 
L 380.727747 52.404415 
L 380.754213 53.302248 
L 380.965945 56.98336 
L 381.045344 57.013287 
L 381.151209 56.0556 
L 381.574672 64.674789 
L 381.601138 64.734645 
L 381.680538 67.517924 
L 381.759937 67.248575 
L 381.786403 67.039081 
L 381.839336 67.428141 
L 381.945202 67.84713 
L 381.971668 67.368286 
L 382.051067 70.450843 
L 382.104 69.942071 
L 382.156933 70.121638 
L 382.209866 69.672722 
L 382.262798 70.061782 
L 382.289265 70.001927 
L 382.315731 70.061782 
L 382.500996 74.670654 
L 382.527462 74.790365 
L 382.739194 79.429165 
L 382.76566 79.219671 
L 382.792126 79.189743 
L 383.030324 76.196969 
L 383.162656 77.932778 
L 383.189123 77.783139 
L 383.480253 88.407487 
L 383.506719 88.587054 
L 383.559652 88.347632 
L 383.771383 84.965797 
L 383.850783 85.354858 
L 383.956648 86.192835 
L 384.009581 85.713991 
L 384.168379 84.39717 
L 384.194846 84.93587 
L 384.512443 87.689222 
L 384.644775 86.52204 
L 384.83004 82.511723 
L 385.174103 79.129888 
L 385.438767 73.503473 
L 385.597565 69.463228 
L 385.650498 71.408531 
L 385.729897 70.839904 
L 385.862229 72.336291 
L 385.888696 71.857447 
L 385.941628 71.857447 
L 386.07396 73.054556 
L 386.312158 66.051465 
L 386.44449 66.65002 
L 386.629755 69.70265 
L 386.682688 69.283661 
L 386.973818 61.053532 
L 387.000285 61.113388 
L 387.185549 58.719169 
L 387.212016 58.749096 
L 387.317881 57.941047 
L 387.344348 58.030831 
L 387.47668 59.646929 
L 387.503146 60.095845 
L 387.609012 60.006062 
L 387.820743 61.143316 
L 388.058941 66.440526 
L 388.111874 66.201104 
L 388.13834 66.979225 
L 388.217739 66.410598 
L 388.323605 68.176335 
L 388.350071 68.655179 
L 388.376538 67.757346 
L 388.535336 65.033922 
L 388.561802 65.06385 
L 388.614735 65.243416 
L 388.8 62.01122 
L 388.8 62.01122 
" style="fill:none;stroke:#1f77b4;stroke-linecap:square;stroke-width:1.5;"/>
   </g>
   <g id="patch_3">
    <path d="M 54 252 
L 54 34.56 
" style="fill:none;stroke:#000000;stroke-linecap:square;stroke-linejoin:miter;stroke-width:0.8;"/>
   </g>
   <g id="patch_4">
    <path d="M 388.8 252 
L 388.8 34.56 
" style="fill:none;stroke:#000000;stroke-linecap:square;stroke-linejoin:miter;stroke-width:0.8;"/>
   </g>
   <g id="patch_5">
    <path d="M 54 252 
L 388.8 252 
" style="fill:none;stroke:#000000;stroke-linecap:square;stroke-linejoin:miter;stroke-width:0.8;"/>
   </g>
   <g id="patch_6">
    <path d="M 54 34.56 
L 388.8 34.56 
" style="fill:none;stroke:#000000;stroke-linecap:square;stroke-linejoin:miter;stroke-width:0.8;"/>
   </g>
   <g id="text_15">
    <!-- Staten Island Rolling 10000 Average -->
    <defs>
     <path d="M 53.515625 70.515625 
L 53.515625 60.890625 
Q 47.90625 63.578125 42.921875 64.890625 
Q 37.9375 66.21875 33.296875 66.21875 
Q 25.25 66.21875 20.875 63.09375 
Q 16.5 59.96875 16.5 54.203125 
Q 16.5 49.359375 19.40625 46.890625 
Q 22.3125 44.4375 30.421875 42.921875 
L 36.375 41.703125 
Q 47.40625 39.59375 52.65625 34.296875 
Q 57.90625 29 57.90625 20.125 
Q 57.90625 9.515625 50.796875 4.046875 
Q 43.703125 -1.421875 29.984375 -1.421875 
Q 24.8125 -1.421875 18.96875 -0.25 
Q 13.140625 0.921875 6.890625 3.21875 
L 6.890625 13.375 
Q 12.890625 10.015625 18.65625 8.296875 
Q 24.421875 6.59375 29.984375 6.59375 
Q 38.421875 6.59375 43.015625 9.90625 
Q 47.609375 13.234375 47.609375 19.390625 
Q 47.609375 24.75 44.3125 27.78125 
Q 41.015625 30.8125 33.5 32.328125 
L 27.484375 33.5 
Q 16.453125 35.6875 11.515625 40.375 
Q 6.59375 45.0625 6.59375 53.421875 
Q 6.59375 63.09375 13.40625 68.65625 
Q 20.21875 74.21875 32.171875 74.21875 
Q 37.3125 74.21875 42.625 73.28125 
Q 47.953125 72.359375 53.515625 70.515625 
z
" id="DejaVuSans-83"/>
     <path d="M 18.3125 70.21875 
L 18.3125 54.6875 
L 36.8125 54.6875 
L 36.8125 47.703125 
L 18.3125 47.703125 
L 18.3125 18.015625 
Q 18.3125 11.328125 20.140625 9.421875 
Q 21.96875 7.515625 27.59375 7.515625 
L 36.8125 7.515625 
L 36.8125 0 
L 27.59375 0 
Q 17.1875 0 13.234375 3.875 
Q 9.28125 7.765625 9.28125 18.015625 
L 9.28125 47.703125 
L 2.6875 47.703125 
L 2.6875 54.6875 
L 9.28125 54.6875 
L 9.28125 70.21875 
z
" id="DejaVuSans-116"/>
     <path d="M 34.28125 27.484375 
Q 23.390625 27.484375 19.1875 25 
Q 14.984375 22.515625 14.984375 16.5 
Q 14.984375 11.71875 18.140625 8.90625 
Q 21.296875 6.109375 26.703125 6.109375 
Q 34.1875 6.109375 38.703125 11.40625 
Q 43.21875 16.703125 43.21875 25.484375 
L 43.21875 27.484375 
z
M 52.203125 31.203125 
L 52.203125 0 
L 43.21875 0 
L 43.21875 8.296875 
Q 40.140625 3.328125 35.546875 0.953125 
Q 30.953125 -1.421875 24.3125 -1.421875 
Q 15.921875 -1.421875 10.953125 3.296875 
Q 6 8.015625 6 15.921875 
Q 6 25.140625 12.171875 29.828125 
Q 18.359375 34.515625 30.609375 34.515625 
L 43.21875 34.515625 
L 43.21875 35.40625 
Q 43.21875 41.609375 39.140625 45 
Q 35.0625 48.390625 27.6875 48.390625 
Q 23 48.390625 18.546875 47.265625 
Q 14.109375 46.140625 10.015625 43.890625 
L 10.015625 52.203125 
Q 14.9375 54.109375 19.578125 55.046875 
Q 24.21875 56 28.609375 56 
Q 40.484375 56 46.34375 49.84375 
Q 52.203125 43.703125 52.203125 31.203125 
z
" id="DejaVuSans-97"/>
     <path d="M 56.203125 29.59375 
L 56.203125 25.203125 
L 14.890625 25.203125 
Q 15.484375 15.921875 20.484375 11.0625 
Q 25.484375 6.203125 34.421875 6.203125 
Q 39.59375 6.203125 44.453125 7.46875 
Q 49.3125 8.734375 54.109375 11.28125 
L 54.109375 2.78125 
Q 49.265625 0.734375 44.1875 -0.34375 
Q 39.109375 -1.421875 33.890625 -1.421875 
Q 20.796875 -1.421875 13.15625 6.1875 
Q 5.515625 13.8125 5.515625 26.8125 
Q 5.515625 40.234375 12.765625 48.109375 
Q 20.015625 56 32.328125 56 
Q 43.359375 56 49.78125 48.890625 
Q 56.203125 41.796875 56.203125 29.59375 
z
M 47.21875 32.234375 
Q 47.125 39.59375 43.09375 43.984375 
Q 39.0625 48.390625 32.421875 48.390625 
Q 24.90625 48.390625 20.390625 44.140625 
Q 15.875 39.890625 15.1875 32.171875 
z
" id="DejaVuSans-101"/>
     <path d="M 54.890625 33.015625 
L 54.890625 0 
L 45.90625 0 
L 45.90625 32.71875 
Q 45.90625 40.484375 42.875 44.328125 
Q 39.84375 48.1875 33.796875 48.1875 
Q 26.515625 48.1875 22.3125 43.546875 
Q 18.109375 38.921875 18.109375 30.90625 
L 18.109375 0 
L 9.078125 0 
L 9.078125 54.6875 
L 18.109375 54.6875 
L 18.109375 46.1875 
Q 21.34375 51.125 25.703125 53.5625 
Q 30.078125 56 35.796875 56 
Q 45.21875 56 50.046875 50.171875 
Q 54.890625 44.34375 54.890625 33.015625 
z
" id="DejaVuSans-110"/>
     <path id="DejaVuSans-32"/>
     <path d="M 9.8125 72.90625 
L 19.671875 72.90625 
L 19.671875 0 
L 9.8125 0 
z
" id="DejaVuSans-73"/>
     <path d="M 44.28125 53.078125 
L 44.28125 44.578125 
Q 40.484375 46.53125 36.375 47.5 
Q 32.28125 48.484375 27.875 48.484375 
Q 21.1875 48.484375 17.84375 46.4375 
Q 14.5 44.390625 14.5 40.28125 
Q 14.5 37.15625 16.890625 35.375 
Q 19.28125 33.59375 26.515625 31.984375 
L 29.59375 31.296875 
Q 39.15625 29.25 43.1875 25.515625 
Q 47.21875 21.78125 47.21875 15.09375 
Q 47.21875 7.46875 41.1875 3.015625 
Q 35.15625 -1.421875 24.609375 -1.421875 
Q 20.21875 -1.421875 15.453125 -0.5625 
Q 10.6875 0.296875 5.421875 2 
L 5.421875 11.28125 
Q 10.40625 8.6875 15.234375 7.390625 
Q 20.0625 6.109375 24.8125 6.109375 
Q 31.15625 6.109375 34.5625 8.28125 
Q 37.984375 10.453125 37.984375 14.40625 
Q 37.984375 18.0625 35.515625 20.015625 
Q 33.0625 21.96875 24.703125 23.78125 
L 21.578125 24.515625 
Q 13.234375 26.265625 9.515625 29.90625 
Q 5.8125 33.546875 5.8125 39.890625 
Q 5.8125 47.609375 11.28125 51.796875 
Q 16.75 56 26.8125 56 
Q 31.78125 56 36.171875 55.265625 
Q 40.578125 54.546875 44.28125 53.078125 
z
" id="DejaVuSans-115"/>
     <path d="M 9.421875 75.984375 
L 18.40625 75.984375 
L 18.40625 0 
L 9.421875 0 
z
" id="DejaVuSans-108"/>
     <path d="M 45.40625 46.390625 
L 45.40625 75.984375 
L 54.390625 75.984375 
L 54.390625 0 
L 45.40625 0 
L 45.40625 8.203125 
Q 42.578125 3.328125 38.25 0.953125 
Q 33.9375 -1.421875 27.875 -1.421875 
Q 17.96875 -1.421875 11.734375 6.484375 
Q 5.515625 14.40625 5.515625 27.296875 
Q 5.515625 40.1875 11.734375 48.09375 
Q 17.96875 56 27.875 56 
Q 33.9375 56 38.25 53.625 
Q 42.578125 51.265625 45.40625 46.390625 
z
M 14.796875 27.296875 
Q 14.796875 17.390625 18.875 11.75 
Q 22.953125 6.109375 30.078125 6.109375 
Q 37.203125 6.109375 41.296875 11.75 
Q 45.40625 17.390625 45.40625 27.296875 
Q 45.40625 37.203125 41.296875 42.84375 
Q 37.203125 48.484375 30.078125 48.484375 
Q 22.953125 48.484375 18.875 42.84375 
Q 14.796875 37.203125 14.796875 27.296875 
z
" id="DejaVuSans-100"/>
     <path d="M 44.390625 34.1875 
Q 47.5625 33.109375 50.5625 29.59375 
Q 53.5625 26.078125 56.59375 19.921875 
L 66.609375 0 
L 56 0 
L 46.6875 18.703125 
Q 43.0625 26.03125 39.671875 28.421875 
Q 36.28125 30.8125 30.421875 30.8125 
L 19.671875 30.8125 
L 19.671875 0 
L 9.8125 0 
L 9.8125 72.90625 
L 32.078125 72.90625 
Q 44.578125 72.90625 50.734375 67.671875 
Q 56.890625 62.453125 56.890625 51.90625 
Q 56.890625 45.015625 53.6875 40.46875 
Q 50.484375 35.9375 44.390625 34.1875 
z
M 19.671875 64.796875 
L 19.671875 38.921875 
L 32.078125 38.921875 
Q 39.203125 38.921875 42.84375 42.21875 
Q 46.484375 45.515625 46.484375 51.90625 
Q 46.484375 58.296875 42.84375 61.546875 
Q 39.203125 64.796875 32.078125 64.796875 
z
" id="DejaVuSans-82"/>
     <path d="M 30.609375 48.390625 
Q 23.390625 48.390625 19.1875 42.75 
Q 14.984375 37.109375 14.984375 27.296875 
Q 14.984375 17.484375 19.15625 11.84375 
Q 23.34375 6.203125 30.609375 6.203125 
Q 37.796875 6.203125 41.984375 11.859375 
Q 46.1875 17.53125 46.1875 27.296875 
Q 46.1875 37.015625 41.984375 42.703125 
Q 37.796875 48.390625 30.609375 48.390625 
z
M 30.609375 56 
Q 42.328125 56 49.015625 48.375 
Q 55.71875 40.765625 55.71875 27.296875 
Q 55.71875 13.875 49.015625 6.21875 
Q 42.328125 -1.421875 30.609375 -1.421875 
Q 18.84375 -1.421875 12.171875 6.21875 
Q 5.515625 13.875 5.515625 27.296875 
Q 5.515625 40.765625 12.171875 48.375 
Q 18.84375 56 30.609375 56 
z
" id="DejaVuSans-111"/>
     <path d="M 9.421875 54.6875 
L 18.40625 54.6875 
L 18.40625 0 
L 9.421875 0 
z
M 9.421875 75.984375 
L 18.40625 75.984375 
L 18.40625 64.59375 
L 9.421875 64.59375 
z
" id="DejaVuSans-105"/>
     <path d="M 45.40625 27.984375 
Q 45.40625 37.75 41.375 43.109375 
Q 37.359375 48.484375 30.078125 48.484375 
Q 22.859375 48.484375 18.828125 43.109375 
Q 14.796875 37.75 14.796875 27.984375 
Q 14.796875 18.265625 18.828125 12.890625 
Q 22.859375 7.515625 30.078125 7.515625 
Q 37.359375 7.515625 41.375 12.890625 
Q 45.40625 18.265625 45.40625 27.984375 
z
M 54.390625 6.78125 
Q 54.390625 -7.171875 48.1875 -13.984375 
Q 42 -20.796875 29.203125 -20.796875 
Q 24.46875 -20.796875 20.265625 -20.09375 
Q 16.0625 -19.390625 12.109375 -17.921875 
L 12.109375 -9.1875 
Q 16.0625 -11.328125 19.921875 -12.34375 
Q 23.78125 -13.375 27.78125 -13.375 
Q 36.625 -13.375 41.015625 -8.765625 
Q 45.40625 -4.15625 45.40625 5.171875 
L 45.40625 9.625 
Q 42.625 4.78125 38.28125 2.390625 
Q 33.9375 0 27.875 0 
Q 17.828125 0 11.671875 7.65625 
Q 5.515625 15.328125 5.515625 27.984375 
Q 5.515625 40.671875 11.671875 48.328125 
Q 17.828125 56 27.875 56 
Q 33.9375 56 38.28125 53.609375 
Q 42.625 51.21875 45.40625 46.390625 
L 45.40625 54.6875 
L 54.390625 54.6875 
z
" id="DejaVuSans-103"/>
     <path d="M 34.1875 63.1875 
L 20.796875 26.90625 
L 47.609375 26.90625 
z
M 28.609375 72.90625 
L 39.796875 72.90625 
L 67.578125 0 
L 57.328125 0 
L 50.6875 18.703125 
L 17.828125 18.703125 
L 11.1875 0 
L 0.78125 0 
z
" id="DejaVuSans-65"/>
     <path d="M 2.984375 54.6875 
L 12.5 54.6875 
L 29.59375 8.796875 
L 46.6875 54.6875 
L 56.203125 54.6875 
L 35.6875 0 
L 23.484375 0 
z
" id="DejaVuSans-118"/>
     <path d="M 41.109375 46.296875 
Q 39.59375 47.171875 37.8125 47.578125 
Q 36.03125 48 33.890625 48 
Q 26.265625 48 22.1875 43.046875 
Q 18.109375 38.09375 18.109375 28.8125 
L 18.109375 0 
L 9.078125 0 
L 9.078125 54.6875 
L 18.109375 54.6875 
L 18.109375 46.1875 
Q 20.953125 51.171875 25.484375 53.578125 
Q 30.03125 56 36.53125 56 
Q 37.453125 56 38.578125 55.875 
Q 39.703125 55.765625 41.0625 55.515625 
z
" id="DejaVuSans-114"/>
    </defs>
    <g transform="translate(111.713438 28.56)scale(0.12 -0.12)">
     <use xlink:href="#DejaVuSans-83"/>
     <use x="63.476562" xlink:href="#DejaVuSans-116"/>
     <use x="102.685547" xlink:href="#DejaVuSans-97"/>
     <use x="163.964844" xlink:href="#DejaVuSans-116"/>
     <use x="203.173828" xlink:href="#DejaVuSans-101"/>
     <use x="264.697266" xlink:href="#DejaVuSans-110"/>
     <use x="328.076172" xlink:href="#DejaVuSans-32"/>
     <use x="359.863281" xlink:href="#DejaVuSans-73"/>
     <use x="389.355469" xlink:href="#DejaVuSans-115"/>
     <use x="441.455078" xlink:href="#DejaVuSans-108"/>
     <use x="469.238281" xlink:href="#DejaVuSans-97"/>
     <use x="530.517578" xlink:href="#DejaVuSans-110"/>
     <use x="593.896484" xlink:href="#DejaVuSans-100"/>
     <use x="657.373047" xlink:href="#DejaVuSans-32"/>
     <use x="689.160156" xlink:href="#DejaVuSans-82"/>
     <use x="758.580078" xlink:href="#DejaVuSans-111"/>
     <use x="819.761719" xlink:href="#DejaVuSans-108"/>
     <use x="847.544922" xlink:href="#DejaVuSans-108"/>
     <use x="875.328125" xlink:href="#DejaVuSans-105"/>
     <use x="903.111328" xlink:href="#DejaVuSans-110"/>
     <use x="966.490234" xlink:href="#DejaVuSans-103"/>
     <use x="1029.966797" xlink:href="#DejaVuSans-32"/>
     <use x="1061.753906" xlink:href="#DejaVuSans-49"/>
     <use x="1125.376953" xlink:href="#DejaVuSans-48"/>
     <use x="1189" xlink:href="#DejaVuSans-48"/>
     <use x="1252.623047" xlink:href="#DejaVuSans-48"/>
     <use x="1316.246094" xlink:href="#DejaVuSans-48"/>
     <use x="1379.869141" xlink:href="#DejaVuSans-32"/>
     <use x="1411.65625" xlink:href="#DejaVuSans-65"/>
     <use x="1479.986328" xlink:href="#DejaVuSans-118"/>
     <use x="1539.166016" xlink:href="#DejaVuSans-101"/>
     <use x="1600.689453" xlink:href="#DejaVuSans-114"/>
     <use x="1641.802734" xlink:href="#DejaVuSans-97"/>
     <use x="1703.082031" xlink:href="#DejaVuSans-103"/>
     <use x="1766.558594" xlink:href="#DejaVuSans-101"/>
    </g>
   </g>
  </g>
 </g>
 <defs>
  <clipPath id="p060ec025e4">
   <rect height="217.44" width="334.8" x="54" y="34.56"/>
  </clipPath>
 </defs>
</svg>
